{
  "accessors": [
    {
      "bufferView": 2,
      "componentType": 5126,
      "count": 588,
      "max": [
        0.5285884737968445,
        0.9820876121520996,
        0.012979302555322647
      ],
      "min": [
        -0.5254237055778503,
        -1.003726840019226,
        -0.0329606756567955
      ],
      "type": "VEC3"
    },
    {
      "bufferView": 2,
      "byteOffset": 7056,
      "componentType": 5126,
      "count": 588,
      "max": [
        0.9999988675117493,
        0.9998868703842163,
        0.9999988079071045
      ],
      "min": [
        -0.9999988675117493,
        -0.9998766183853149,
        -0.9999988675117493
      ],
      "type": "VEC3"
    },
    {
      "bufferView": 3,
      "componentType": 5126,
      "count": 588,
      "max": [
        1.0,
        0.9974130988121033,
        0.9892921447753906,
        1.0
      ],
      "min": [
        -0.9999979138374329,
        -0.9999997615814209,
        -0.9997392296791077,
        -1.0
      ],
      "type": "VEC4"
    },
    {
      "bufferView": 1,
      "componentType": 5126,
      "count": 588,
      "max": [
        0.6716583967208862,
        0.6669949889183044
      ],
      "min": [
        0.01105111837387085,
        0.009958148002624512
      ],
      "type": "VEC2"
    },
    {
      "bufferView": 1,
      "byteOffset": 4704,
      "componentType": 5126,
      "count": 588,
      "max": [
        0.6716583967208862,
        0.6669949889183044
      ],
      "min": [
        0.01105111837387085,
        0.009958148002624512
      ],
      "type": "VEC2"
    },
    {
      "bufferView": 1,
      "byteOffset": 9408,
      "componentType": 5126,
      "count": 588,
      "max": [
        0.6716583967208862,
        0.6669949889183044
      ],
      "min": [
        0.01105111837387085,
        0.009958148002624512
      ],
      "type": "VEC2"
    },
    {
      "bufferView": 1,
      "byteOffset": 14112,
      "componentType": 5126,
      "count": 588,
      "max": [
        0.6716583967208862,
        0.6669949889183044
      ],
      "min": [
        0.01105111837387085,
        0.009958148002624512
      ],
      "type": "VEC2"
    },
    {
      "bufferView": 0,
      "componentType": 5125,
      "count": 1644,
      "type": "SCALAR"
    },
    {
      "bufferView": 2,
      "byteOffset": 14112,
      "componentType": 5126,
      "count": 340,
      "max": [
        0.5583125352859497,
        1.0075124502182007,
        0.040628671646118164
      ],
      "min": [
        -0.5583125352859497,
        -1.0075126886367798,
        -0.04062875360250473
      ],
      "type": "VEC3"
    },
    {
      "bufferView": 2,
      "byteOffset": 18192,
      "componentType": 5126,
      "count": 340,
      "max": [
        1.0,
        1.0,
        1.0
      ],
      "min": [
        -1.0,
        -1.0,
        -1.0
      ],
      "type": "VEC3"
    },
    {
      "bufferView": 1,
      "byteOffset": 18816,
      "componentType": 5126,
      "count": 340,
      "max": [
        0.9689321517944336,
        0.9839072227478027
      ],
      "min": [
        0.010502107441425323,
        0.030358314514160156
      ],
      "type": "VEC2"
    },
    {
      "bufferView": 1,
      "byteOffset": 21536,
      "componentType": 5126,
      "count": 340,
      "max": [
        0.9689321517944336,
        0.9839072227478027
      ],
      "min": [
        0.010502107441425323,
        0.030358314514160156
      ],
      "type": "VEC2"
    },
    {
      "bufferView": 1,
      "byteOffset": 24256,
      "componentType": 5126,
      "count": 340,
      "max": [
        0.9689321517944336,
        0.9839072227478027
      ],
      "min": [
        0.010502107441425323,
        0.030358314514160156
      ],
      "type": "VEC2"
    },
    {
      "bufferView": 0,
      "byteOffset": 6576,
      "componentType": 5125,
      "count": 696,
      "type": "SCALAR"
    }
  ],
  "asset": {
    "extras": {
      "author": "Seismic_Creations (https://sketchfab.com/Seismic_Creations)",
      "license": "CC-BY-4.0 (http://creativecommons.org/licenses/by/4.0/)",
      "source": "https://sketchfab.com/3d-models/blind-34e1fe776646493a8753eabae7ed5893",
      "title": "Blind"
    },
    "generator": "Sketchfab-12.66.0",
    "version": "2.0"
  },
  "bufferViews": [
    {
      "buffer": 0,
      "byteLength": 9360,
      "name": "floatBufferViews",
      "target": 34963
    },
    {
      "buffer": 0,
      "byteLength": 26976,
      "byteOffset": 9360,
      "byteStride": 8,
      "name": "floatBufferViews",
      "target": 34962
    },
    {
      "buffer": 0,
      "byteLength": 22272,
      "byteOffset": 36336,
      "byteStride": 12,
      "name": "floatBufferViews",
      "target": 34962
    },
    {
      "buffer": 0,
      "byteLength": 9408,
      "byteOffset": 58608,
      "byteStride": 16,
      "name": "floatBufferViews",
      "target": 34962
    }
  ],
  "buffers": [
    {
      "byteLength": 68016,
      "uri": "scene.bin"
    }
  ],
  "images": [
    {
      "uri": "textures/Blind_mtl_baseColor.jpeg"
    },
    {
      "uri": "textures/Blind_mtl_metallicRoughness.png"
    },
    {
      "uri": "textures/Blind_mtl_normal.jpeg"
    },
    {
      "uri": "textures/Blind_parts_mtl_baseColor.jpeg"
    },
    {
      "uri": "textures/Blind_parts_mtl_metallicRoughness.png"
    }
  ],
  "materials": [
    {
      "doubleSided": true,
      "name": "Blind_mtl",
      "normalTexture": {
        "index": 2
      },
      "pbrMetallicRoughness": {
        "baseColorTexture": {
          "index": 0
        },
        "metallicRoughnessTexture": {
          "index": 1
        }
      }
    },
    {
      "doubleSided": true,
      "name": "Blind_parts_mtl",
      "pbrMetallicRoughness": {
        "baseColorTexture": {
          "index": 3
        },
        "metallicRoughnessTexture": {
          "index": 4
        }
      }
    }
  ],
  "meshes": [
    {
      "name": "Object_0",
      "primitives": [
        {
          "attributes": {
            "NORMAL": 1,
            "POSITION": 0,
            "TANGENT": 2,
            "TEXCOORD_0": 3,
            "TEXCOORD_1": 4,
            "TEXCOORD_2": 5,
            "TEXCOORD_3": 6
          },
          "indices": 7,
          "material": 0,
          "mode": 4
        }
      ]
    },
    {
      "name": "Object_1",
      "primitives": [
        {
          "attributes": {
            "NORMAL": 9,
            "POSITION": 8,
            "TEXCOORD_0": 10,
            "TEXCOORD_1": 11,
            "TEXCOORD_2": 12
          },
          "indices": 13,
          "material": 1,
          "mode": 4
        }
      ]
    }
  ],
  "nodes": [
    {
      "children": [
        1
      ],
      "matrix": [
        1.0,
        0.0,
        0.0,
        0.0,
        0.0,
        2.220446049250313e-16,
        -1.0,
        0.0,
        0.0,
        1.0,
        2.220446049250313e-16,
        0.0,
        0.0,
        0.0,
        0.0,
        1.0
      ],
      "name": "Sketchfab_model"
    },
    {
      "children": [
        2
      ],
      "name": "root"
    },
    {
      "children": [
        3
      ],
      "matrix": [
        1.0,
        0.0,
        0.0,
        0.0,
        0.0,
        2.220446049250313e-16,
        1.0,
        0.0,
        0.0,
        -1.0,
        2.220446049250313e-16,
        0.0,
        0.0,
        0.0,
        0.0,
        1.0
      ],
      "name": "GLTF_SceneRootNode"
    },
    {
      "children": [
        4,
        6
      ],
      "name": "Blind model_4"
    },
    {
      "children": [
        5
      ],
      "name": "BLIND_2"
    },
    {
      "mesh": 0,
      "name": "Object_5"
    },
    {
      "children": [
        7
      ],
      "name": "Box001_3"
    },
    {
      "mesh": 1,
      "name": "Object_7"
    }
  ],
  "samplers": [
    {
      "magFilter": 9729,
      "minFilter": 9987,
      "wrapS": 10497,
      "wrapT": 10497
    }
  ],
  "scene": 0,
  "scenes": [
    {
      "name": "Sketchfab_Scene",
      "nodes": [
        0
      ]
    }
  ],
  "textures": [
    {
      "sampler": 0,
      "source": 0
    },
    {
      "sampler": 0,
      "source": 1
    },
    {
      "sampler": 0,
      "source": 2
    },
    {
      "sampler": 0,
      "source": 3
    },
    {
      "sampler": 0,
      "source": 4
    }
  ]
}
