{
  "accessors": [
    {
      "bufferView": 2,
      "componentType": 5126,
      "count": 64,
      "max": [
        11.139760971069336,
        15.888972282409668,
        2.8232295513153076
      ],
      "min": [
        9.13976001739502,
        13.888971328735352,
        -0.09060120582580566
      ],
      "type": "VEC3"
    },
    {
      "bufferView": 2,
      "byteOffset": 768,
      "componentType": 5126,
      "count": 64,
      "max": [
        8.354155056622403e-08,
        0.0,
        1.0
      ],
      "min": [
        -5.3705297986539335e-09,
        0.0,
        -1.0
      ],
      "type": "VEC3"
    },
    {
      "bufferView": 1,
      "componentType": 5126,
      "count": 64,
      "max": [
        0.8122832775115967,
        0.7211117148399353
      ],
      "min": [
        0.1978948712348938,
        0.3209102749824524
      ],
      "type": "VEC2"
    },
    {
      "bufferView": 1,
      "byteOffset": 512,
      "componentType": 5126,
      "count": 64,
      "max": [
        0.8122832775115967,
        0.7211117148399353
      ],
      "min": [
        0.1978948712348938,
        0.3209102749824524
      ],
      "type": "VEC2"
    },
    {
      "bufferView": 0,
      "componentType": 5125,
      "count": 180,
      "type": "SCALAR"
    },
    {
      "bufferView": 2,
      "byteOffset": 1536,
      "componentType": 5126,
      "count": 182,
      "max": [
        36.23009490966797,
        19.542795181274414,
        3.0909676551818848
      ],
      "min": [
        -35.83135223388672,
        -19.542795181274414,
        -0.3471064567565918
      ],
      "type": "VEC3"
    },
    {
      "bufferView": 2,
      "byteOffset": 3720,
      "componentType": 5126,
      "count": 182,
      "max": [
        1.0,
        1.0,
        1.0
      ],
      "min": [
        -1.0,
        -1.0,
        -1.0
      ],
      "type": "VEC3"
    },
    {
      "bufferView": 1,
      "byteOffset": 1024,
      "componentType": 5126,
      "count": 182,
      "max": [
        5.602558135986328,
        4.536620616912842
      ],
      "min": [
        -4.65604305267334,
        -3.8169007301330566
      ],
      "type": "VEC2"
    },
    {
      "bufferView": 1,
      "byteOffset": 2480,
      "componentType": 5126,
      "count": 182,
      "max": [
        5.602558135986328,
        4.536620616912842
      ],
      "min": [
        -4.65604305267334,
        -3.8169007301330566
      ],
      "type": "VEC2"
    },
    {
      "bufferView": 0,
      "byteOffset": 720,
      "componentType": 5125,
      "count": 312,
      "type": "SCALAR"
    },
    {
      "bufferView": 2,
      "byteOffset": 5904,
      "componentType": 5126,
      "count": 25762,
      "max": [
        36.23009490966797,
        19.542795181274414,
        6.356184005737305
      ],
      "min": [
        -8.277593612670898,
        -19.542795181274414,
        -3.6244547367095947
      ],
      "type": "VEC3"
    },
    {
      "bufferView": 2,
      "byteOffset": 315048,
      "componentType": 5126,
      "count": 25762,
      "max": [
        1.0,
        1.0,
        1.0
      ],
      "min": [
        -1.0,
        -1.0,
        -1.0
      ],
      "type": "VEC3"
    },
    {
      "bufferView": 3,
      "componentType": 5126,
      "count": 25762,
      "max": [
        1.0,
        1.0,
        1.0,
        1.0
      ],
      "min": [
        -1.0,
        -0.9996986389160156,
        -0.9993036985397339,
        -1.0
      ],
      "type": "VEC4"
    },
    {
      "bufferView": 1,
      "byteOffset": 3936,
      "componentType": 5126,
      "count": 25762,
      "max": [
        1.0000001192092896,
        1.0000001192092896
      ],
      "min": [
        0.0,
        -0.060796141624450684
      ],
      "type": "VEC2"
    },
    {
      "bufferView": 1,
      "byteOffset": 210032,
      "componentType": 5126,
      "count": 25762,
      "max": [
        1.0000001192092896,
        1.0000001192092896
      ],
      "min": [
        0.0,
        -0.060796141624450684
      ],
      "type": "VEC2"
    },
    {
      "bufferView": 1,
      "byteOffset": 416128,
      "componentType": 5126,
      "count": 25762,
      "max": [
        1.0000001192092896,
        1.0000001192092896
      ],
      "min": [
        0.0,
        -0.060796141624450684
      ],
      "type": "VEC2"
    },
    {
      "bufferView": 0,
      "byteOffset": 1968,
      "componentType": 5125,
      "count": 119016,
      "type": "SCALAR"
    },
    {
      "bufferView": 2,
      "byteOffset": 624192,
      "componentType": 5126,
      "count": 384,
      "max": [
        -9.884437561035156,
        16.517486572265625,
        2.9638495445251465
      ],
      "min": [
        -13.141464233398438,
        13.260458946228027,
        -0.21972346305847168
      ],
      "type": "VEC3"
    },
    {
      "bufferView": 2,
      "byteOffset": 628800,
      "componentType": 5126,
      "count": 384,
      "max": [
        0.995184600353241,
        0.995184600353241,
        1.0
      ],
      "min": [
        -0.995184600353241,
        -0.9951848983764648,
        -1.0
      ],
      "type": "VEC3"
    },
    {
      "bufferView": 1,
      "byteOffset": 622224,
      "componentType": 5126,
      "count": 384,
      "max": [
        0.8651401400566101,
        0.9243683218955994
      ],
      "min": [
        0.12464088201522827,
        0.07896500825881958
      ],
      "type": "VEC2"
    },
    {
      "bufferView": 0,
      "byteOffset": 478032,
      "componentType": 5125,
      "count": 744,
      "type": "SCALAR"
    },
    {
      "bufferView": 2,
      "byteOffset": 633408,
      "componentType": 5126,
      "count": 30,
      "max": [
        10.536497116088867,
        10.120611190795898,
        1.3982468843460083
      ],
      "min": [
        -30.46323585510254,
        4.337726593017578,
        1.3678255081176758
      ],
      "type": "VEC3"
    },
    {
      "bufferView": 2,
      "byteOffset": 633768,
      "componentType": 5126,
      "count": 30,
      "max": [
        1.0,
        1.0,
        1.0
      ],
      "min": [
        -1.0,
        -1.0,
        -1.0
      ],
      "type": "VEC3"
    },
    {
      "bufferView": 1,
      "byteOffset": 625296,
      "componentType": 5126,
      "count": 30,
      "max": [
        1.9306747913360596,
        0.7143784761428833
      ],
      "min": [
        -0.9306747913360596,
        0.285621702671051
      ],
      "type": "VEC2"
    },
    {
      "bufferView": 0,
      "byteOffset": 481008,
      "componentType": 5125,
      "count": 54,
      "type": "SCALAR"
    }
  ],
  "asset": {
    "extras": {
      "author": "dylanheyes (https://sketchfab.com/dylanheyes)",
      "license": "CC-BY-4.0 (http://creativecommons.org/licenses/by/4.0/)",
      "source": "https://sketchfab.com/3d-models/commercial-door-b6d4f852379f4504b2e7abc28a7dc740",
      "title": "Commercial Door"
    },
    "generator": "Sketchfab-13.74.0",
    "version": "2.0"
  },
  "bufferViews": [
    {
      "buffer": 0,
      "byteLength": 481224,
      "name": "floatBufferViews",
      "target": 34963
    },
    {
      "buffer": 0,
      "byteLength": 625536,
      "byteOffset": 481224,
      "byteStride": 8,
      "name": "floatBufferViews",
      "target": 34962
    },
    {
      "buffer": 0,
      "byteLength": 634128,
      "byteOffset": 1106760,
      "byteStride": 12,
      "name": "floatBufferViews",
      "target": 34962
    },
    {
      "buffer": 0,
      "byteLength": 412192,
      "byteOffset": 1740888,
      "byteStride": 16,
      "name": "floatBufferViews",
      "target": 34962
    }
  ],
  "buffers": [
    {
      "byteLength": 2153080,
      "uri": "scene.bin"
    }
  ],
  "extensionsUsed": [
    "KHR_materials_clearcoat"
  ],
  "images": [
    {
      "uri": "textures/Keyhole_baseColor.jpeg"
    },
    {
      "uri": "textures/Door_baseColor.jpeg"
    },
    {
      "uri": "textures/DoorMetal_baseColor.jpeg"
    },
    {
      "uri": "textures/DoorMetal_normal.png"
    },
    {
      "uri": "textures/FiredoorSign_baseColor.jpeg"
    },
    {
      "uri": "textures/Window_baseColor.jpeg"
    }
  ],
  "materials": [
    {
      "doubleSided": true,
      "name": "Keyhole",
      "pbrMetallicRoughness": {
        "baseColorTexture": {
          "index": 0
        },
        "metallicFactor": 0.0,
        "roughnessFactor": 0.5
      }
    },
    {
      "doubleSided": true,
      "name": "Door",
      "pbrMetallicRoughness": {
        "baseColorTexture": {
          "index": 1
        },
        "metallicFactor": 0.0,
        "roughnessFactor": 0.8211145618000169
      }
    },
    {
      "doubleSided": true,
      "name": "DoorMetal",
      "normalTexture": {
        "index": 3
      },
      "pbrMetallicRoughness": {
        "baseColorTexture": {
          "index": 2
        },
        "metallicFactor": 0.8,
        "roughnessFactor": 0.18
      }
    },
    {
      "doubleSided": true,
      "name": "FiredoorSign",
      "pbrMetallicRoughness": {
        "baseColorTexture": {
          "index": 4
        },
        "metallicFactor": 0.4,
        "roughnessFactor": 0.8211145618000169
      }
    },
    {
      "alphaMode": "BLEND",
      "doubleSided": true,
      "extensions": {
        "KHR_materials_clearcoat": {
          "clearcoatFactor": 0.5,
          "clearcoatRoughnessFactor": 0.04
        }
      },
      "name": "Window",
      "pbrMetallicRoughness": {
        "baseColorFactor": [
          1.0,
          1.0,
          1.0,
          0.3
        ],
        "baseColorTexture": {
          "index": 5
        },
        "metallicFactor": 0.9,
        "roughnessFactor": 0.8211145618000169
      }
    }
  ],
  "meshes": [
    {
      "name": "Circle_Keyhole_0",
      "primitives": [
        {
          "attributes": {
            "NORMAL": 1,
            "POSITION": 0,
            "TEXCOORD_0": 2,
            "TEXCOORD_1": 3
          },
          "indices": 4,
          "material": 0,
          "mode": 4
        }
      ]
    },
    {
      "name": "Circle_Door_0",
      "primitives": [
        {
          "attributes": {
            "NORMAL": 6,
            "POSITION": 5,
            "TEXCOORD_0": 7,
            "TEXCOORD_1": 8
          },
          "indices": 9,
          "material": 1,
          "mode": 4
        }
      ]
    },
    {
      "name": "Circle_DoorMetal_0",
      "primitives": [
        {
          "attributes": {
            "NORMAL": 11,
            "POSITION": 10,
            "TANGENT": 12,
            "TEXCOORD_0": 13,
            "TEXCOORD_1": 14,
            "TEXCOORD_2": 15
          },
          "indices": 16,
          "material": 2,
          "mode": 4
        }
      ]
    },
    {
      "name": "Circle_FiredoorSign_0",
      "primitives": [
        {
          "attributes": {
            "NORMAL": 18,
            "POSITION": 17,
            "TEXCOORD_0": 19
          },
          "indices": 20,
          "material": 3,
          "mode": 4
        }
      ]
    },
    {
      "name": "Circle_Window_0",
      "primitives": [
        {
          "attributes": {
            "NORMAL": 22,
            "POSITION": 21,
            "TEXCOORD_0": 23
          },
          "indices": 24,
          "material": 4,
          "mode": 4
        }
      ]
    }
  ],
  "nodes": [
    {
      "children": [
        1
      ],
      "matrix": [
        -0.9999997615814209,
        0.0006731553003191948,
        1.494705027125664e-19,
        0.0,
        0.0,
        2.220446049250313e-16,
        -1.0,
        0.0,
        -0.0006731553003191948,
        -0.9999997615814209,
        -2.220445519854721e-16,
        0.0,
        0.0,
        0.0,
        0.0,
        1.0
      ],
      "name": "Sketchfab_model"
    },
    {
      "children": [
        2
      ],
      "matrix": [
        0.009999999776482582,
        0.0,
        0.0,
        0.0,
        0.0,
        -0.009999999776482582,
        0.0,
        0.0,
        0.0,
        0.0,
        -0.009999999776482582,
        0.0,
        0.0,
        0.0,
        0.0,
        1.0
      ],
      "name": "Commerical Door.fbx"
    },
    {
      "children": [
        3
      ],
      "name": "RootNode"
    },
    {
      "children": [
        4,
        5,
        6,
        7,
        8
      ],
      "matrix": [
        3.8632085201183046e-07,
        0.0,
        -5.116974830627426,
        0.0,
        -5.116974830627359,
        -8.336610169729209e-07,
        -3.863208517277813e-07,
        0.0,
        -8.336610175410192e-07,
        5.116974830627373,
        -6.249081600728996e-14,
        0.0,
        -5.9604644775390625e-06,
        1.4901161193847656e-06,
        0.0,
        1.0
      ],
      "name": "Circle"
    },
    {
      "mesh": 0,
      "name": "Circle_Keyhole_0"
    },
    {
      "mesh": 1,
      "name": "Circle_Door_0"
    },
    {
      "mesh": 2,
      "name": "Circle_DoorMetal_0"
    },
    {
      "mesh": 3,
      "name": "Circle_FiredoorSign_0"
    },
    {
      "mesh": 4,
      "name": "Circle_Window_0"
    }
  ],
  "samplers": [
    {
      "magFilter": 9729,
      "minFilter": 9987,
      "wrapS": 10497,
      "wrapT": 10497
    }
  ],
  "scene": 0,
  "scenes": [
    {
      "name": "Sketchfab_Scene",
      "nodes": [
        0
      ]
    }
  ],
  "textures": [
    {
      "sampler": 0,
      "source": 0
    },
    {
      "sampler": 0,
      "source": 1
    },
    {
      "sampler": 0,
      "source": 2
    },
    {
      "sampler": 0,
      "source": 3
    },
    {
      "sampler": 0,
      "source": 4
    },
    {
      "sampler": 0,
      "source": 5
    }
  ]
}
