{
  "accessors": [
    {
      "bufferView": 2,
      "componentType": 5126,
      "count": 10502,
      "max": [
        0.8000001907348633,
        0.7999999523162842,
        0.15000009536743164
      ],
      "min": [
        -0.8000023365020752,
        -0.7999999523162842,
        -0.05200643092393875
      ],
      "type": "VEC3"
    },
    {
      "bufferView": 2,
      "byteOffset": 126024,
      "componentType": 5126,
      "count": 10502,
      "max": [
        1.0,
        1.0,
        1.0
      ],
      "min": [
        -1.0,
        -1.0,
        -1.0
      ],
      "type": "VEC3"
    },
    {
      "bufferView": 3,
      "componentType": 5126,
      "count": 10502,
      "max": [
        1.0,
        1.0,
        1.0,
        -1.0
      ],
      "min": [
        -1.0,
        -0.9260780215263367,
        -1.0,
        -1.0
      ],
      "type": "VEC4"
    },
    {
      "bufferView": 1,
      "componentType": 5126,
      "count": 10502,
      "max": [
        0.9936490654945374,
        1.0
      ],
      "min": [
        0.0,
        0.005361974239349365
      ],
      "type": "VEC2"
    },
    {
      "bufferView": 1,
      "byteOffset": 84016,
      "componentType": 5126,
      "count": 10502,
      "max": [
        0.9936490654945374,
        1.0
      ],
      "min": [
        0.0,
        0.005361974239349365
      ],
      "type": "VEC2"
    },
    {
      "bufferView": 1,
      "byteOffset": 168032,
      "componentType": 5126,
      "count": 10502,
      "max": [
        0.9936490654945374,
        1.0
      ],
      "min": [
        0.0,
        0.005361974239349365
      ],
      "type": "VEC2"
    },
    {
      "bufferView": 1,
      "byteOffset": 252048,
      "componentType": 5126,
      "count": 10502,
      "max": [
        0.9936490654945374,
        1.0
      ],
      "min": [
        0.0,
        0.005361974239349365
      ],
      "type": "VEC2"
    },
    {
      "bufferView": 1,
      "byteOffset": 336064,
      "componentType": 5126,
      "count": 10502,
      "max": [
        0.9936490654945374,
        1.0
      ],
      "min": [
        0.0,
        0.005361974239349365
      ],
      "type": "VEC2"
    },
    {
      "bufferView": 0,
      "componentType": 5125,
      "count": 47448,
      "type": "SCALAR"
    }
  ],
  "asset": {
    "extras": {
      "author": "Geug (https://sketchfab.com/Geug)",
      "license": "CC-BY-4.0 (http://creativecommons.org/licenses/by/4.0/)",
      "source": "https://sketchfab.com/3d-models/window-13ca5449e53043ceb4523dfb656ba827",
      "title": "Window"
    },
    "generator": "Sketchfab-14.87.0",
    "version": "2.0"
  },
  "bufferViews": [
    {
      "buffer": 0,
      "byteLength": 189792,
      "name": "floatBufferViews",
      "target": 34963
    },
    {
      "buffer": 0,
      "byteLength": 420080,
      "byteOffset": 189792,
      "byteStride": 8,
      "name": "floatBufferViews",
      "target": 34962
    },
    {
      "buffer": 0,
      "byteLength": 252048,
      "byteOffset": 609872,
      "byteStride": 12,
      "name": "floatBufferViews",
      "target": 34962
    },
    {
      "buffer": 0,
      "byteLength": 168032,
      "byteOffset": 861920,
      "byteStride": 16,
      "name": "floatBufferViews",
      "target": 34962
    }
  ],
  "buffers": [
    {
      "byteLength": 1029952,
      "uri": "scene.bin"
    }
  ],
  "images": [
    {
      "uri": "textures/principledshader_baseColor.png"
    },
    {
      "uri": "textures/principledshader_metallicRoughness.png"
    },
    {
      "uri": "textures/principledshader_normal.png"
    }
  ],
  "materials": [
    {
      "name": "principledshader",
      "normalTexture": {
        "index": 2
      },
      "occlusionTexture": {
        "index": 1
      },
      "pbrMetallicRoughness": {
        "baseColorTexture": {
          "index": 0
        },
        "metallicFactor": 0.0,
        "metallicRoughnessTexture": {
          "index": 1
        },
        "roughnessFactor": 0.3
      }
    }
  ],
  "meshes": [
    {
      "name": "Object_0",
      "primitives": [
        {
          "attributes": {
            "NORMAL": 1,
            "POSITION": 0,
            "TANGENT": 2,
            "TEXCOORD_0": 3,
            "TEXCOORD_1": 4,
            "TEXCOORD_2": 5,
            "TEXCOORD_3": 6,
            "TEXCOORD_4": 7
          },
          "indices": 8,
          "material": 0,
          "mode": 4
        }
      ]
    }
  ],
  "nodes": [
    {
      "children": [
        1
      ],
      "matrix": [
        1.0,
        0.0,
        0.0,
        0.0,
        0.0,
        2.220446049250313e-16,
        -1.0,
        0.0,
        0.0,
        1.0,
        2.220446049250313e-16,
        0.0,
        0.0,
        0.0,
        0.0,
        1.0
      ],
      "name": "Sketchfab_model"
    },
    {
      "children": [
        2
      ],
      "name": "root"
    },
    {
      "children": [
        3
      ],
      "matrix": [
        1.0,
        0.0,
        0.0,
        0.0,
        0.0,
        2.220446049250313e-16,
        1.0,
        0.0,
        0.0,
        -1.0,
        2.220446049250313e-16,
        0.0,
        0.0,
        0.0,
        0.0,
        1.0
      ],
      "name": "GLTF_SceneRootNode"
    },
    {
      "children": [
        4
      ],
      "name": "PanelBuilding_DZE_0"
    },
    {
      "mesh": 0,
      "name": "Object_4"
    }
  ],
  "samplers": [
    {
      "magFilter": 9729,
      "minFilter": 9987,
      "wrapS": 10497,
      "wrapT": 10497
    }
  ],
  "scene": 0,
  "scenes": [
    {
      "name": "Sketchfab_Scene",
      "nodes": [
        0
      ]
    }
  ],
  "textures": [
    {
      "sampler": 0,
      "source": 0
    },
    {
      "sampler": 0,
      "source": 1
    },
    {
      "sampler": 0,
      "source": 2
    }
  ]
}
