{
  "accessors": [
    {
      "bufferView": 2,
      "componentType": 5126,
      "count": 27555,
      "max": [
        0.3475208282470703,
        0.6205349564552307,
        0.5342614650726318
      ],
      "min": [
        -0.21864047646522522,
        -0.6205349564552307,
        0.0009832978248596191
      ],
      "type": "VEC3"
    },
    {
      "bufferView": 2,
      "byteOffset": 330660,
      "componentType": 5126,
      "count": 27555,
      "max": [
        1.0,
        1.0,
        1.0
      ],
      "min": [
        -1.0,
        -1.0,
        -1.0
      ],
      "type": "VEC3"
    },
    {
      "bufferView": 3,
      "componentType": 5126,
      "count": 27555,
      "max": [
        0.999999463558197,
        1.0,
        0.9999986290931702,
        1.0
      ],
      "min": [
        -1.0,
        -1.0,
        -0.999998927116394,
        -1.0
      ],
      "type": "VEC4"
    },
    {
      "bufferView": 1,
      "componentType": 5126,
      "count": 27555,
      "max": [
        0.9885314106941223,
        0.9865363836288452
      ],
      "min": [
        0.011114192195236683,
        0.011114210821688175
      ],
      "type": "VEC2"
    },
    {
      "bufferView": 1,
      "byteOffset": 220440,
      "componentType": 5126,
      "count": 27555,
      "max": [
        0.9885314106941223,
        0.9865363836288452
      ],
      "min": [
        0.011114192195236683,
        0.011114210821688175
      ],
      "type": "VEC2"
    },
    {
      "bufferView": 1,
      "byteOffset": 440880,
      "componentType": 5126,
      "count": 27555,
      "max": [
        0.9885314106941223,
        0.9865363836288452
      ],
      "min": [
        0.011114192195236683,
        0.011114210821688175
      ],
      "type": "VEC2"
    },
    {
      "bufferView": 0,
      "componentType": 5125,
      "count": 85656,
      "type": "SCALAR"
    }
  ],
  "asset": {
    "extras": {
      "author": "ArtLab (https://sketchfab.com/ArtLab06)",
      "license": "CC-BY-4.0 (http://creativecommons.org/licenses/by/4.0/)",
      "source": "https://sketchfab.com/3d-models/artlab-universchool-table-766df665f03943d485962c430b2f031d",
      "title": "ArtLab Univer/school Table"
    },
    "generator": "Sketchfab-15.61.0",
    "version": "2.0"
  },
  "bufferViews": [
    {
      "buffer": 0,
      "byteLength": 342624,
      "name": "floatBufferViews",
      "target": 34963
    },
    {
      "buffer": 0,
      "byteLength": 661320,
      "byteOffset": 342624,
      "byteStride": 8,
      "name": "floatBufferViews",
      "target": 34962
    },
    {
      "buffer": 0,
      "byteLength": 661320,
      "byteOffset": 1003944,
      "byteStride": 12,
      "name": "floatBufferViews",
      "target": 34962
    },
    {
      "buffer": 0,
      "byteLength": 440880,
      "byteOffset": 1665264,
      "byteStride": 16,
      "name": "floatBufferViews",
      "target": 34962
    }
  ],
  "buffers": [
    {
      "byteLength": 2106144,
      "uri": "scene.bin"
    }
  ],
  "images": [
    {
      "uri": "textures/Table_baseColor.png"
    },
    {
      "uri": "textures/Table_metallicRoughness.png"
    },
    {
      "uri": "textures/Table_normal.png"
    }
  ],
  "materials": [
    {
      "doubleSided": true,
      "name": "Table",
      "normalTexture": {
        "index": 2,
        "texCoord": 1
      },
      "pbrMetallicRoughness": {
        "baseColorTexture": {
          "index": 0
        },
        "metallicRoughnessTexture": {
          "index": 1
        }
      }
    }
  ],
  "meshes": [
    {
      "name": "Table_Baked_Table_0",
      "primitives": [
        {
          "attributes": {
            "NORMAL": 1,
            "POSITION": 0,
            "TANGENT": 2,
            "TEXCOORD_0": 3,
            "TEXCOORD_1": 4,
            "TEXCOORD_2": 5
          },
          "indices": 6,
          "material": 0,
          "mode": 4
        }
      ]
    }
  ],
  "nodes": [
    {
      "children": [
        1
      ],
      "matrix": [
        1.0,
        0.0,
        0.0,
        0.0,
        0.0,
        2.220446049250313e-16,
        -1.0,
        0.0,
        0.0,
        1.0,
        2.220446049250313e-16,
        0.0,
        0.0,
        0.0,
        0.0,
        1.0
      ],
      "name": "Sketchfab_model"
    },
    {
      "children": [
        2
      ],
      "matrix": [
        0.009999999776482582,
        0.0,
        0.0,
        0.0,
        0.0,
        0.0,
        0.009999999776482582,
        0.0,
        0.0,
        -0.009999999776482582,
        0.0,
        0.0,
        0.0,
        0.0,
        0.0,
        1.0
      ],
      "name": "a963f71f51c44689a36f0932be5101cf.fbx"
    },
    {
      "children": [
        3,
        6,
        9,
        12,
        15,
        17
      ],
      "name": "RootNode"
    },
    {
      "children": [
        4
      ],
      "matrix": [
        100.0,
        0.0,
        0.0,
        0.0,
        0.0,
        99.99999999999972,
        -7.5497901264043296e-06,
        0.0,
        0.0,
        7.5497901264043296e-06,
        99.99999999999972,
        0.0,
        0.0,
        116.60244750976563,
        0.0,
        1.0
      ],
      "name": "Area"
    },
    {
      "children": [
        5
      ],
      "matrix": [
        1.0,
        0.0,
        0.0,
        0.0,
        0.0,
        2.220446049250313e-16,
        1.0,
        0.0,
        0.0,
        -1.0,
        2.220446049250313e-16,
        0.0,
        0.0,
        0.0,
        0.0,
        1.0
      ],
      "name": "Object_4"
    },
    {
      "name": "Object_5"
    },
    {
      "children": [
        7
      ],
      "matrix": [
        65.55810874351752,
        -1.1102230246251565e-14,
        -75.5124782931479,
        0.0,
        75.51247829314767,
        7.549789982075339e-06,
        65.55810874351735,
        0.0,
        6.922646268412455e-06,
        -121.4279174804684,
        6.010074207956266e-06,
        0.0,
        75.63887023925781,
        46.78837203979492,
        101.6993179321289,
        1.0
      ],
      "name": "Area.001"
    },
    {
      "children": [
        8
      ],
      "matrix": [
        1.0,
        0.0,
        0.0,
        0.0,
        0.0,
        2.220446049250313e-16,
        1.0,
        0.0,
        0.0,
        -1.0,
        2.220446049250313e-16,
        0.0,
        0.0,
        0.0,
        0.0,
        1.0
      ],
      "name": "Object_7"
    },
    {
      "name": "Object_8"
    },
    {
      "children": [
        10
      ],
      "matrix": [
        -69.61048742171292,
        1.1102230246251565e-14,
        -71.79401117719742,
        0.0,
        71.79401117719605,
        1.9470718881642313e-05,
        -69.6104874217116,
        0.0,
        1.697417797749143e-05,
        -121.42791748046645,
        -1.6457929904559627e-05,
        0.0,
        75.63887023925781,
        46.78837203979492,
        -160.28758239746094,
        1.0
      ],
      "name": "Area.002"
    },
    {
      "children": [
        11
      ],
      "matrix": [
        1.0,
        0.0,
        0.0,
        0.0,
        0.0,
        2.220446049250313e-16,
        1.0,
        0.0,
        0.0,
        -1.0,
        2.220446049250313e-16,
        0.0,
        0.0,
        0.0,
        0.0,
        1.0
      ],
      "name": "Object_10"
    },
    {
      "name": "Object_11"
    },
    {
      "children": [
        13
      ],
      "matrix": [
        28.184119863846657,
        90.07454322606976,
        -33.04893417517754,
        0.0,
        -92.35682561166061,
        34.80280998406539,
        16.09284481598892,
        0.0,
        25.99751620628123,
        25.987321812915386,
        92.99886158494692,
        0.0,
        -90.61193084716797,
        95.16228485107422,
        -1.2615740299224854,
        1.0
      ],
      "name": "Area.003"
    },
    {
      "children": [
        14
      ],
      "matrix": [
        1.0,
        0.0,
        0.0,
        0.0,
        0.0,
        2.220446049250313e-16,
        1.0,
        0.0,
        0.0,
        -1.0,
        2.220446049250313e-16,
        0.0,
        0.0,
        0.0,
        0.0,
        1.0
      ],
      "name": "Object_13"
    },
    {
      "name": "Object_14"
    },
    {
      "children": [
        16
      ],
      "matrix": [
        100.0,
        0.0,
        0.0,
        0.0,
        0.0,
        -1.629206793918314e-05,
        -99.99999999999868,
        0.0,
        0.0,
        99.99999999999868,
        -1.629206793918314e-05,
        0.0,
        0.0,
        0.0,
        0.0,
        1.0
      ],
      "name": "Table_Baked"
    },
    {
      "mesh": 0,
      "name": "Table_Baked_Table_0"
    },
    {
      "children": [
        18
      ],
      "matrix": [
        70.55544864819197,
        -6.622456191864931,
        -70.55545152601022,
        0.0,
        4.6827842562893585,
        99.78048202516241,
        -4.682783821003801,
        0.0,
        70.71067953999179,
        -4.4187966410924595e-07,
        70.71067669731768,
        0.0,
        -182.36264038085938,
        45.397464752197266,
        199.14283752441406,
        1.0
      ],
      "name": "Camera"
    },
    {
      "name": "Object_18"
    }
  ],
  "samplers": [
    {
      "magFilter": 9729,
      "minFilter": 9987,
      "wrapS": 10497,
      "wrapT": 10497
    }
  ],
  "scene": 0,
  "scenes": [
    {
      "name": "Sketchfab_Scene",
      "nodes": [
        0
      ]
    }
  ],
  "textures": [
    {
      "sampler": 0,
      "source": 0
    },
    {
      "sampler": 0,
      "source": 1
    },
    {
      "sampler": 0,
      "source": 2
    }
  ]
}
